<?xml version="1.0" encoding="utf-8"?>
<!-- Generator: Adobe Illustrator 27.0.0, SVG Export Plug-In . SVG Version: 6.00 Build 0)  -->
<svg version="1.1" id="sheep" xmlns="http://www.w3.org/2000/svg" xmlns:xlink="http://www.w3.org/1999/xlink" x="0px" y="0px"
	 viewBox="0 0 512 512" style="enable-background:new 0 0 512 512;" xml:space="preserve">
<g>
	<path d="M475.3,204.8c-6.4-8.5-14.7-14.4-25.3-16.9c-7.9-1.8-10.6-5.2-11.8-13.4c-2.6-18-9.5-33.7-24.1-45.2
		c-14.8-11.6-31.8-15.3-50.3-13.2c-9.8,1.1-19.2,3.7-28.1,8c-6.1,2.9-11.5,1.3-15.4-4.7c-12.3-18.5-29.7-29.6-51.1-33.8
		c-27-5.3-52.5-1.6-75.1,15.3c-2.4,1.8-4.4,4-6.6,6c9.5,0.2,18.4,1.3,26.6,5.6c18.4,9.8,27.8,25.7,30.5,45.9
		c0.4,3.2,1.3,3.9,4.4,3.9c20.1,0,39.1,3.6,56.4,14.7c42.5,27.2,53.8,86.2,24,126.9c-15.8,21.6-37.1,33.7-63.5,37.1
		c-1.8,0.2-3.6,0.2-5.4,0.2c-24.5,0-48.9,0.1-73.4-0.1c-9-0.1-17.9-1.6-26.1-5.6c-13.3-6.6-18-18.7-13.5-32.8
		c7.4-22.9,9.7-46.1,4.6-69.8c-1-4.5-2.6-8.7-4.8-12.7c-2.1-4.1-3.6-8.4-3.3-13.1c0.6-9.8,8.1-16.6,19.2-17.5c9-0.7,18.1-1,26.8,1.1
		c18.3,4.4,32.5-13.9,29.6-31.4c-1.1-6.5-3.8-12.4-8-17.5c-8.1-9.7-19.4-12.6-32.6-6.4c-11.4,5.3-16.8,3.4-24-5.9
		c-9.1-11.9-24.9-14.5-41.1-8.4c-14.4,5.4-22.3,16.5-26.6,30.6c-1.9,6.2-3,12.6-2.6,19.2c0.4,5.7-3.1,10.2-8.8,12
		c-7.1,2.2-14.3,3.9-21.1,7.3c-19.7,9.8-31.2,25.7-35,47.2c-3.7,21.2-1.4,41.3,12,59c6.7,9,15,16.1,24.8,21.6c1.7,1,3.4,1.9,5.1,2.7
		c6.6,3.1,9.3,8.2,8.3,15.4c-1.4,10.3-0.7,20.4,2.2,30.3c12.9,43.8,57.3,51.7,87.4,32.2c1-0.7,2.1-1.4,3.1-2
		c6.5-3.7,11.7-3.1,16.8,2.3c12.7,13.6,28.1,22.7,46.1,26.9c33.2,7.7,62-0.5,85.8-25.1c4.2-4.3,8.3-7.8,14.8-5.9
		c1.4,0.4,2.6,0.8,3.7,1.7c9.6,8.4,21.3,11.5,33.4,13c21.8,2.7,42.6-0.2,60.8-13.3c20.4-14.8,31.1-35,30.6-60.6
		c-0.1-5.4,2-9.2,6.2-12.3c7.1-5.3,13.8-11.1,19.1-18.3c7.7-10.4,11.1-22.4,12.7-35C496,246,490,224.2,475.3,204.8z M120.2,244.4
		c-4.9,21.2-17.8,35.9-36.9,45.6c-4.2,2.1-8.9,2.9-13.4,2.7c-6.9,0.1-12.9-1.6-17.9-6c-5.8-5.1-5.9-10.3,0.5-14.6
		c20.1-13.4,40.3-26.6,60.5-39.8c3.3-2.1,5.6-1.1,6.9,2.7C120.9,238.1,120.9,241.3,120.2,244.4z"/>
	<path d="M171.5,310c-0.7,2.1-0.1,3,1.7,3.7c5,1.9,10.2,2.4,15.5,2.5c11.9,0.2,23.8,0,35.6,0c0,0,0,0,0,0.1c11.1,0,22.1,0.1,33.2,0
		c30.4-0.3,55.9-21,62.5-50.6c8-35.7-16.1-71.2-52.4-77.1c-8.3-1.4-16.8-0.9-25.2-1.7c-2.4-0.2-3,1.4-3.9,2.9
		c-7.7,13.8-19,22.7-34.7,25.8c-6.3,1.2-12.7,0.4-19-0.6c-3.7-0.6-8.6-2.3-10.8-0.3c-2.7,2.4,1.2,6.5,2,9.9
		c4.2,18.3,4.8,36.6,2.3,55.1C176.9,290,174.8,300.1,171.5,310z M214.5,222.7c5.5,0.1,9.9,4.6,9.9,10.1s-4.4,10.2-9.7,10.3
		c-5.6,0.1-10.3-4.5-10.4-10.2C204.3,227.3,208.9,222.6,214.5,222.7z"/>
</g>
</svg>
