<?xml version="1.0" encoding="utf-8"?><!--Generator: Adobe Illustrator 27.0.0, SVG Export Plug-In . SVG Version: 6.00 Build 0)--><svg version="1.1" id="_圖層_1" xmlns="http://www.w3.org/2000/svg" xmlns:xlink="http://www.w3.org/1999/xlink" x="0px" y="0px" viewBox="0 0 325.4 276.5" style="enable-background:new 0 0 325.4 276.5" xml:space="preserve"><g><g><path d="M321,137.7c0-19-11.8-46.8-34.1-54.2c-5.1-26.4-24.4-43.4-51.3-45c-5.7-0.4-16.3,0.7-25.3,4.1
			c-15.1-18.9-39-24.4-55.9-23.2c-26.4,1.9-40.3,12.9-49.6,25c-10.4-6.2-22.3-5.5-28.6-3.6c-7.7,2-13.6,5.8-18.2,10.3
			C48.7,59.8,44.3,72,44,81.3c-16.2,5-37.6,18.1-39.5,51.8c-1.6,27.6,14.1,46.3,30.9,55.6c-0.1,1.1-0.1,2.1-0.1,3.2
			c0,30.4,21.1,53.3,49.1,53.3c9.1,0,17.8-2.3,25.6-6.6c13.1,11.9,30.3,18.7,48.2,18.7c19.9,0,36.2-9,46.1-18.3
			c12,7,30.1,8.6,43.8,6.2c27.9-4.8,48-27,49.8-55.3c0-0.2,0-0.3,0-0.5s0-0.4,0-0.6C310.3,179.1,321,165.5,321,137.7z M285.8,179.1
			c-2.3,1.6-3.4,4.4-3,7.1c0.1,0.8,0.1,1.8,0.1,2.9c-1.5,21.1-16.5,37.7-37.4,41.3c-12.2,2.1-29.9,0.1-37-6.8
			c-1.5-1.5-3.6-2.2-5.7-2.1c-2.1,0.1-4.1,1.2-5.4,2.8c-7.1,8.9-22,18-39.2,18c-15.8,0-31-6.7-41.7-18.3c-1.5-1.6-3.5-2.4-5.5-2.4
			c-1.5,0-3.1,0.5-4.4,1.4c-6.4,4.7-14.1,7.2-22.2,7.2c-22.4,0-34.1-19.3-34.1-38.3c0-2.2,0.2-4.3,0.5-6.4c0.5-3.4-1.3-6.7-4.4-8
			c-6.7-3-28.6-15-27-43.5c1.2-21.8,12.7-35.1,34.2-39.7c2.1-0.4,3.9-1.7,4.9-3.6c1.1-1.8,1.3-4,0.7-6v-0.1c0.2-0.6,0.3-1.2,0.3-1.9
			c0-0.2,0.5-12.1,8.6-20.5c2.6-2.4,5.7-4.4,9.7-5.7c9.7-3.1,16.2-1.2,20.2,1.3c2.1,1.4,4.1,3.3,5.8,6c2.2,3.4,6.6,4.4,10.1,2.4
			c0,0,4.1-2.3,9.1-2.8c6.3-0.6,11,1.9,14.7,7.9c6.2,10,2.4,17.9,0.5,20.8c-3.1,4.7-8,7.4-12.5,6.7c-14.8-2.2-24.3-2.2-28.6,4.1
			c-2.7,3.9-2.4,8.7,0.8,14.4c2.4,4.3,7.5,22.1-0.1,47.6c-1.8,3.7-2.6,9.3,0.4,14.4c3.9,6.7,12.5,10,26.4,10h38.6
			c29.7,0,53.8-24.1,53.8-53.8s-24.1-53.9-53.8-53.9c-0.6,0-2.5-0.1-4.1-0.2c-1.1-0.1-2.1-0.1-3-0.2c-0.2-6-2.1-12.2-5.7-17.9
			c-8.1-12.9-19.4-15.9-29.1-14.9c7.7-7.7,17.8-12.8,34.3-14c14.3-1,34.9,4,45.9,21.6c2.1,3.4,6.5,4.5,10,2.6c6.5-3.6,18-5.3,23.4-5
			c10.2,0.6,34.4,5.4,38.1,37c0.4,3.3,2.9,6,6.2,6.5c17.7,3,26.9,28.1,26.9,40.7C306,162.4,296,171.7,285.8,179.1z M112.1,112.4
			c2.4,0.1,6,0.3,11.4,1.1c10.3,1.5,21-3.7,27.3-13.3c0.9-1.4,1.7-2.8,2.4-4.2c1.7,0.1,3.7,0.2,5.1,0.3c2.4,0.2,3.9,0.2,5,0.2
			c21.4,0,38.8,17.5,38.8,38.9s-17.4,38.8-38.8,38.8h-38.6c-10,0-12.8-2-13.4-2.4c0-0.2,0.1-0.4,0.1-0.5c0.3-0.5,0.4-0.8,0.6-1.4
			C121.1,139.2,114.9,119.2,112.1,112.4z"/><ellipse cx="137.6" cy="123.8" rx="6.1" ry="6.1"/><path d="M76.5,123.4c0,0-29.8,19.5-37.5,24.8s9.6,20.1,27.4,5.3C85.1,137.9,82.8,119.2,76.5,123.4z"/></g></g></svg>