<?xml version="1.0" encoding="utf-8"?>
<svg width="512px" height="418px" viewBox="0 0 512 418" version="1.1" xmlns:xlink="http://www.w3.org/1999/xlink" xmlns="http://www.w3.org/2000/svg">
  <defs>
    <path d="M512 0L512 0L512 418L0 418L0 0L512 0Z" id="path_1" />
    <clipPath id="clip_1">
      <use xlink:href="#path_1" clip-rule="evenodd" fill-rule="evenodd" />
    </clipPath>
  </defs>
  <g id="logo-BLUE">
    <path d="M512 0L512 0L512 418L0 418L0 0L512 0Z" id="logo-BLUE" fill="none" stroke="none" />
    <g id="Group" transform="translate(27.064213 42.804005)" clip-path="url(#clip_1)">
      <path d="M162.936 22.496C172.136 22.696 180.736 23.696 188.536 27.896C206.236 37.296 215.336 52.696 217.936 72.196C218.336 75.196 219.136 75.996 222.136 75.996C241.436 75.996 259.836 79.496 276.436 90.196C317.336 116.396 328.236 173.196 299.536 212.396C284.336 233.196 263.836 244.796 238.336 248.196C236.636 248.396 234.836 248.296 233.136 248.296C209.536 248.296 186.036 248.396 162.436 248.196C153.736 248.096 145.236 246.696 137.336 242.796C124.536 236.496 120.036 224.696 124.336 211.196C131.436 189.196 133.636 166.796 128.836 143.896C127.936 139.596 126.236 135.596 124.236 131.596C122.236 127.696 120.736 123.496 121.036 118.996C121.636 109.496 128.836 102.996 139.536 102.196C148.236 101.496 156.936 101.296 165.336 103.296C183.036 107.596 196.636 89.896 193.936 73.096C192.936 66.796 190.236 61.196 186.236 56.296C178.436 46.996 167.536 44.196 154.836 50.096C143.836 55.196 138.636 53.396 131.736 44.396C123.036 32.896 107.736 30.396 92.1358 36.296C78.2358 41.496 70.6358 52.196 66.5358 65.796C64.7358 71.796 63.6358 77.896 64.0358 84.296C64.3358 89.696 61.0358 94.196 55.5358 95.896C48.7358 98.096 41.7358 99.696 35.2358 102.896C16.2358 112.396 5.13578 127.596 1.53578 148.396C-2.06422 168.896 0.235779 188.096 13.0358 205.296C19.5358 213.896 27.5358 220.796 36.9358 226.196C38.5358 227.096 40.2358 227.996 41.8358 228.796C48.2358 231.796 50.8358 236.696 49.8358 243.696C48.5358 253.596 49.1358 263.396 51.9358 272.896C64.3358 315.096 107.136 322.696 136.136 303.896C137.136 303.196 138.136 302.496 139.136 301.996C145.436 298.496 150.436 298.996 155.336 304.196C167.636 317.296 182.336 326.096 199.836 330.096C231.836 337.496 259.536 329.596 282.536 305.996C286.536 301.896 290.536 298.496 296.736 300.296C298.036 300.696 299.336 301.096 300.336 301.996C309.536 310.096 320.836 312.996 332.536 314.496C353.536 317.096 373.536 314.296 391.036 301.696C410.736 287.396 421.036 267.896 420.436 243.296C420.336 238.096 422.336 234.396 426.336 231.396C433.136 226.296 439.636 220.696 444.736 213.796C452.136 203.796 455.436 192.196 456.936 180.096C459.936 156.796 454.236 135.796 440.036 117.096C433.836 108.896 425.836 103.196 415.636 100.796C408.036 98.996 405.436 95.796 404.336 87.896C401.836 70.596 395.236 55.396 381.136 44.396C366.836 33.296 350.436 29.696 332.736 31.596C323.236 32.596 314.236 35.196 305.636 39.296C299.836 42.096 294.636 40.496 290.836 34.796C278.936 16.996 262.236 6.29602 241.636 2.19603C215.636 -3.00397 191.136 0.696026 169.336 16.896C167.036 18.396 165.136 20.596 162.936 22.496L162.936 22.496ZM49.6358 201.496C43.0358 201.596 37.2358 199.896 32.4358 195.696C26.8358 190.796 26.7358 185.696 32.9358 181.596C52.2358 168.696 71.7358 155.996 91.1358 143.196C94.3358 141.096 96.5358 142.096 97.7358 145.796C98.7358 148.796 98.8358 151.896 98.1358 154.896C93.4358 175.296 80.9358 189.496 62.5358 198.796C58.4358 200.996 53.9358 201.696 49.6358 201.496L49.6358 201.496Z" id="Shape" fill="#FFFFFF" fill-rule="evenodd" stroke="none" />
      <path d="M198.436 224.296C209.036 224.296 219.736 224.396 230.336 224.296C259.636 223.996 284.136 204.096 290.536 175.496C298.236 141.096 275.036 106.896 240.036 101.196C232.036 99.896 223.836 100.296 215.736 99.596C213.436 99.396 212.836 100.896 211.936 102.396C204.536 115.696 193.636 124.296 178.536 127.296C172.436 128.496 166.336 127.696 160.236 126.696C156.636 126.096 151.936 124.496 149.836 126.396C147.236 128.696 150.936 132.696 151.736 135.996C155.836 153.596 156.336 171.296 153.936 189.096C152.636 198.996 150.536 208.696 147.336 218.196C146.636 220.296 147.236 221.096 149.036 221.796C153.836 223.696 158.836 224.196 163.936 224.196C175.536 224.296 186.936 224.196 198.436 224.296C198.436 224.196 198.436 224.296 198.436 224.296L198.436 224.296ZM198.536 143.896C198.536 149.196 194.236 153.796 189.136 153.896C183.736 153.996 179.136 149.496 179.136 144.096C179.136 138.596 183.536 134.096 188.936 134.196C194.236 134.196 198.436 138.596 198.536 143.896L198.536 143.896Z" id="Shape" fill="#FFFFFF" fill-rule="evenodd" stroke="none" />
    </g>
  </g>
</svg>